<svg width="45" height="45" viewBox="0 0 45 45" fill="none" xmlns="http://www.w3.org/2000/svg">
<circle cx="22.5" cy="22.5" r="22.5" transform="rotate(90 22.5 22.5)" fill="white"/>
<g clip-path="url(#clip0)">
<path d="M22.0331 28.3082L17.6994 23.9746C17.5757 23.8509 17.5078 23.686 17.5078 23.5102C17.5078 23.3342 17.5758 23.1694 17.6994 23.0457L18.093 22.6522C18.2165 22.5286 18.3815 22.4605 18.5574 22.4605C18.7332 22.4605 18.9037 22.5286 19.0272 22.6522L21.5609 25.1804V17.1483C21.5609 16.7861 21.8445 16.5 22.2067 16.5H22.7631C23.1253 16.5 23.4374 16.7861 23.4374 17.1483V25.2091L25.9853 22.6523C26.109 22.5287 26.2695 22.4606 26.4454 22.4606C26.6211 22.4606 26.7839 22.5287 26.9075 22.6523L27.2998 23.0458C27.4235 23.1695 27.4909 23.3343 27.4909 23.5103C27.4909 23.6861 27.4227 23.851 27.299 23.9747L22.9653 28.3083C22.8412 28.4323 22.6756 28.5005 22.4995 28.5C22.3228 28.5004 22.157 28.4323 22.0331 28.3082Z" fill="#234DD4"/>
</g>
<defs>
<clipPath id="clip0">
<rect width="12" height="12" fill="white" transform="matrix(0 1 1 0 16.5 16.5)"/>
</clipPath>
</defs>
</svg>
