<svg width="45" height="45" viewBox="0 0 45 45" fill="none" xmlns="http://www.w3.org/2000/svg">
<path d="M45 22.5C45 10.0736 34.9264 0 22.5 0C10.0736 0 0 10.0736 0 22.5C0 34.9264 10.0736 45 22.5 45C34.9264 45 45 34.9264 45 22.5Z" fill="white"/>
<path d="M22.9669 16.6918L27.3006 21.0254C27.4243 21.1491 27.4922 21.314 27.4922 21.4898C27.4922 21.6658 27.4242 21.8306 27.3006 21.9543L26.907 22.3478C26.7835 22.4714 26.6185 22.5395 26.4426 22.5395C26.2668 22.5395 26.0963 22.4714 25.9728 22.3478L23.4391 19.8196V27.8517C23.4391 28.2139 23.1555 28.5 22.7933 28.5H22.2369C21.8747 28.5 21.5626 28.2139 21.5626 27.8517V19.7909L19.0147 22.3477C18.891 22.4713 18.7305 22.5394 18.5546 22.5394C18.3789 22.5394 18.2161 22.4713 18.0925 22.3477L17.7002 21.9542C17.5765 21.8305 17.5091 21.6657 17.5091 21.4897C17.5091 21.3139 17.5773 21.149 17.701 21.0253L22.0347 16.6917C22.1588 16.5677 22.3244 16.4995 22.5005 16.5C22.6772 16.4996 22.843 16.5677 22.9669 16.6918Z" fill="#234DD4"/>
</svg>
