<svg width="45" height="45" viewBox="0 0 45 45" fill="none" xmlns="http://www.w3.org/2000/svg">
    <rect width="45" height="45" rx="10" fill="#EFF5F5"/>
    <path d="M30.365 17.7425L26.9 19.695V17C26.9 16.7083 26.7841 16.4285 26.5778 16.2222C26.3715 16.0159 26.0917 15.9 25.8 15.9H15.9C15.3165 15.9 14.7569 16.1318 14.3443 16.5444C13.9317 16.9569 13.7 17.5165 13.7 18.1V26.9C13.7 27.4835 13.9317 28.0431 14.3443 28.4556C14.7569 28.8682 15.3165 29.1 15.9 29.1H25.8C26.0917 29.1 26.3715 28.9841 26.5778 28.7778C26.7841 28.5715 26.9 28.2917 26.9 28V25.294L30.365 27.2465C30.4538 27.3046 30.5565 27.3383 30.6625 27.3441C30.7685 27.35 30.8742 27.3278 30.969 27.2799C31.0637 27.2319 31.1442 27.1599 31.2023 27.071C31.2604 26.9821 31.2941 26.8795 31.3 26.7735V18.21C31.2932 18.1044 31.2588 18.0025 31.2004 17.9144C31.1419 17.8262 31.0614 17.7549 30.9668 17.7076C30.8722 17.6603 30.7668 17.6387 30.6612 17.6448C30.5556 17.6509 30.4535 17.6846 30.365 17.7425Z" fill="#234DD4"/>
</svg>
