<svg width="45" height="45" viewBox="0 0 45 45" fill="none" xmlns="http://www.w3.org/2000/svg">
    <rect width="45" height="45" rx="10" fill="#EFF5F5"/>
    <path d="M30.3681 17.7425L26.9031 19.695V17C26.9031 16.7083 26.7872 16.4285 26.5809 16.2222C26.3747 16.0159 26.0949 15.9 25.8031 15.9H15.9031C15.3196 15.9 14.7601 16.1318 14.3475 16.5444C13.9349 16.9569 13.7031 17.5165 13.7031 18.1V26.9C13.7031 27.4835 13.9349 28.043 14.3475 28.4556C14.7601 28.8682 15.3196 29.1 15.9031 29.1H25.8031C26.0949 29.1 26.3747 28.9841 26.5809 28.7778C26.7872 28.5715 26.9031 28.2917 26.9031 28V25.294L30.3681 27.2465C30.457 27.3046 30.5596 27.3382 30.6657 27.3441C30.7717 27.35 30.8774 27.3278 30.9722 27.2799C31.0669 27.2319 31.1474 27.1599 31.2055 27.071C31.2636 26.9821 31.2973 26.8795 31.3031 26.7735V18.21C31.2963 18.1044 31.262 18.0025 31.2036 17.9144C31.1451 17.8262 31.0645 17.7549 30.9699 17.7076C30.8753 17.6603 30.77 17.6387 30.6644 17.6448C30.5588 17.6509 30.4566 17.6846 30.3681 17.7425Z" fill="#234DD4"/>
    <line y1="-1" x2="28.8" y2="-1" transform="matrix(0.646916 -0.762561 0.768145 0.640276 13.5 33.6617)" stroke="#234DD4" stroke-width="2"/>
</svg>
