<svg width="107" height="35" viewBox="0 0 107 35" fill="none" xmlns="http://www.w3.org/2000/svg">
    <rect width="107" height="35" rx="8" fill="#234DD4"/>
    <path d="M44.75 9.5H31.25C31.0512 9.50023 30.8605 9.57932 30.7199 9.71993C30.5793 9.86053 30.5002 10.0512 30.5 10.25V15.25H31.5V10.5H44.5V23.5H31.5V18.5H30.5V23.75C30.5002 23.9488 30.5793 24.1395 30.7199 24.2801C30.8605 24.4207 31.0512 24.4998 31.25 24.5H44.75C44.9488 24.4998 45.1395 24.4207 45.2801 24.2801C45.4207 24.1395 45.4998 23.9488 45.5 23.75V10.25C45.4998 10.0512 45.4207 9.86053 45.2801 9.71993C45.1395 9.57932 44.9488 9.50023 44.75 9.5Z" fill="white"/>
    <path d="M36.543 20.3533L37.2501 21.0604L41.4571 16.8535L37.2501 12.6465L36.543 13.3535L39.5429 16.3535H30.5V17.3535H39.5429L36.543 20.3533Z" fill="white"/>
    <path d="M56.1 21.076H60.86V22H55.12V12.2H60.79V13.124H56.1V16.596H60.44V17.52H56.1V21.076ZM68.2838 22H67.1778L64.9938 19.116L62.8098 22H61.7038L64.4478 18.374L61.8858 15H62.9918L64.9938 17.646L66.9958 15H68.1018L65.5538 18.374L68.2838 22ZM70.4785 13.32C70.3479 13.4507 70.1892 13.516 70.0025 13.516C69.8159 13.516 69.6572 13.4507 69.5265 13.32C69.3959 13.1893 69.3305 13.0307 69.3305 12.844C69.3305 12.6573 69.3959 12.4987 69.5265 12.368C69.6572 12.2373 69.8159 12.172 70.0025 12.172C70.1892 12.172 70.3479 12.2373 70.4785 12.368C70.6092 12.4987 70.6745 12.6573 70.6745 12.844C70.6745 13.0307 70.6092 13.1893 70.4785 13.32ZM69.5405 22V15H70.4645V22H69.5405ZM76.1353 15.896H74.1193V20.138C74.1193 20.5207 74.194 20.796 74.3433 20.964C74.4926 21.1227 74.7166 21.2067 75.0153 21.216C75.314 21.216 75.6873 21.2067 76.1353 21.188V22C75.1553 22.1493 74.418 22.0793 73.9233 21.79C73.438 21.5007 73.1953 20.95 73.1953 20.138V15.896H71.7253V15H73.1953V13.32L74.1193 13.04V15H76.1353V15.896Z" fill="white"/>
</svg>
