<svg width="31" height="30" viewBox="0 0 31 30" fill="none" xmlns="http://www.w3.org/2000/svg">
    <circle opacity="0.7" cx="15.0547" cy="15" r="14.5" fill="white" stroke="#EAEAEA"/>
    <g clip-path="url(#clip0)">
        <path d="M11.05 15.3368L14.1798 18.4667C14.2692 18.5561 14.3883 18.6051 14.5152 18.6051C14.6423 18.6051 14.7613 18.556 14.8507 18.4667L15.1348 18.1825C15.2241 18.0933 15.2733 17.9741 15.2733 17.8471C15.2733 17.7201 15.2241 17.597 15.1348 17.5078L13.3089 15.6778H19.1099C19.3715 15.6778 19.5781 15.4731 19.5781 15.2115V14.8096C19.5781 14.548 19.3715 14.3226 19.1099 14.3226H13.2882L15.1348 12.4825C15.224 12.3931 15.2732 12.2772 15.2732 12.1502C15.2732 12.0233 15.224 11.9057 15.1348 11.8164L14.8506 11.5331C14.7613 11.4437 14.6423 11.3951 14.5151 11.3951C14.3882 11.3951 14.2691 11.4444 14.1798 11.5337L11.0499 14.6636C10.9604 14.7532 10.9111 14.8728 10.9115 15C10.9112 15.1276 10.9604 15.2473 11.05 15.3368Z" fill="#717171"/>
    </g>
    <defs>
        <clipPath id="clip0">
            <rect width="8.66667" height="8.66667" fill="white" transform="translate(19.5781 19.3333) rotate(180)"/>
        </clipPath>
    </defs>
</svg>
