<svg width="14" height="14" viewBox="0 0 14 14" fill="none" xmlns="http://www.w3.org/2000/svg">
    <path d="M7.00145 3.00952C5.56831 3.00952 4.40234 4.17549 4.40234 5.60863C4.40234 7.04177 5.56831 8.20773 7.00145 8.20773C8.43459 8.20773 9.60055 7.04177 9.60055 5.60863C9.60055 4.17549 8.43462 3.00952 7.00145 3.00952ZM7.00145 7.11338C6.17173 7.11338 5.49669 6.43834 5.49669 5.60863C5.49669 4.77891 6.17173 4.10387 7.00145 4.10387C7.83117 4.10387 8.5062 4.77891 8.5062 5.60863C8.5062 6.43834 7.83117 7.11338 7.00145 7.11338Z" fill="#717171"/>
    <path d="M6.99924 0C3.90663 0 1.39062 2.51604 1.39062 5.60861V5.76365C1.39062 7.32771 2.28734 9.15034 4.05593 11.1808C5.33802 12.6528 6.60221 13.6791 6.65536 13.7221L6.99924 14L7.34311 13.7222C7.3963 13.6792 8.66048 12.6528 9.94254 11.1808C11.7111 9.15034 12.6078 7.32774 12.6078 5.76368V5.60864C12.6078 2.51604 10.0918 0 6.99924 0ZM11.5135 5.76368C11.5135 8.40686 8.10781 11.6065 6.99924 12.5778C5.89037 11.6062 2.48498 8.40667 2.48498 5.76368V5.60864C2.48498 3.11948 4.51008 1.09438 6.99924 1.09438C9.48839 1.09438 11.5135 3.11948 11.5135 5.60864V5.76368Z" fill="#717171"/>
</svg>
