<svg width="96" height="25" viewBox="0 0 96 25" fill="none" xmlns="http://www.w3.org/2000/svg">
<path d="M8.51609 10.1238H5.58355V15.4987C5.58355 15.9428 5.70085 16.2699 5.912 16.4802C6.1466 16.6906 6.47504 16.8074 6.89733 16.8308C7.31961 16.8542 7.8592 16.8542 8.49263 16.8074V19.8221C6.19352 20.0791 4.57476 19.8688 3.63635 19.1677C2.69793 18.49 2.22873 17.2514 2.22873 15.4754V10.1004H0V6.92214H2.25219V4.32813L5.60701 3.32324V6.94551H8.53955V10.1238H8.51609Z" fill="#222222"/>
<path d="M18.0871 6.57143C19.4947 6.57143 20.6677 7.03882 21.6061 7.99697C22.5211 8.95512 22.9903 10.2404 22.9903 11.923V19.8219H19.6355V12.3203C19.6355 11.4557 19.4009 10.8013 18.9316 10.3339C18.4624 9.86653 17.8525 9.6562 17.0548 9.6562C16.1868 9.6562 15.5064 9.91327 14.9903 10.4508C14.4742 10.9883 14.2161 11.7828 14.2161 12.8578V19.8219H10.8848V1.75732H14.2396V8.37088C15.0372 7.15567 16.3276 6.57143 18.0871 6.57143Z" fill="#222222"/>
<path d="M28.6689 14.7511C29.1147 16.3636 30.3346 17.1815 32.3287 17.1815C33.5956 17.1815 34.5809 16.7609 35.2378 15.8962L37.9357 17.4386C36.6454 19.2848 34.7686 20.1962 32.2818 20.1962C30.1469 20.1962 28.4109 19.5418 27.1205 18.2565C25.8302 16.9712 25.1733 15.3353 25.1733 13.3723C25.1733 11.4326 25.8068 9.79676 27.0971 8.51144C28.3639 7.20275 30.0062 6.57178 32.0237 6.57178C33.924 6.57178 35.4959 7.22612 36.7393 8.53481C37.9827 9.8435 38.5926 11.456 38.5926 13.3957C38.5926 13.8163 38.5457 14.2837 38.4519 14.7745L28.6689 14.7511ZM28.5985 12.1571H35.2144C35.0267 11.269 34.6278 10.6147 34.0413 10.194C33.4548 9.7734 32.7745 9.5397 32.0003 9.5397C31.1088 9.5397 30.3581 9.7734 29.7716 10.2174C29.1851 10.7082 28.8097 11.3391 28.5985 12.1571Z" fill="#222222"/>
<path d="M43.6128 14.7511C44.0585 16.3636 45.2785 17.1815 47.2726 17.1815C48.5394 17.1815 49.5248 16.7609 50.1817 15.8962L52.8796 17.4386C51.5893 19.2848 49.7125 20.1962 47.2257 20.1962C45.0908 20.1962 43.3547 19.5418 42.0644 18.2565C40.7741 16.9712 40.1172 15.3353 40.1172 13.3723C40.1172 11.4326 40.7506 9.79676 42.0409 8.51144C43.3078 7.20275 44.95 6.57178 46.9676 6.57178C48.8679 6.57178 50.4397 7.22612 51.6831 8.53481C52.9265 9.8435 53.5365 11.456 53.5365 13.3957C53.5365 13.8163 53.4896 14.2837 53.3957 14.7745L43.6128 14.7511ZM43.5659 12.1571H50.1817C49.994 11.269 49.5951 10.6147 49.0086 10.194C48.4221 9.7734 47.7418 9.5397 46.9676 9.5397C46.0761 9.5397 45.3254 9.7734 44.7389 10.2174C44.1524 10.7082 43.7535 11.3391 43.5659 12.1571Z" fill="#222222"/>
<path d="M63.7884 6.92139H67.3544L62.6389 19.8213C61.9585 21.6909 61.067 23.0229 59.9644 23.8643C58.8383 24.7055 57.4541 25.0795 55.8119 24.986V21.9012C56.7034 21.9246 57.4307 21.7376 57.9468 21.3403C58.4629 20.9431 58.8852 20.3121 59.2136 19.4241L53.9116 6.92139H57.5714L60.9497 15.5915L63.7884 6.92139Z" fill="#222222"/>
<path d="M71.2485 14.7511C71.6943 16.3636 72.9142 17.1815 74.9083 17.1815C76.1752 17.1815 77.1605 16.7609 77.8174 15.8962L80.5153 17.4386C79.225 19.2848 77.3482 20.1962 74.8614 20.1962C72.7265 20.1962 70.9905 19.5418 69.7001 18.2565C68.4098 16.9712 67.7529 15.3353 67.7529 13.3723C67.7529 11.4326 68.3864 9.79676 69.6767 8.51144C70.9435 7.20275 72.5858 6.57178 74.6033 6.57178C76.5036 6.57178 78.0755 7.22612 79.2954 8.53481C80.5388 9.8435 81.1488 11.456 81.1488 13.3957C81.1488 13.8163 81.1018 14.2837 81.008 14.7745L71.2485 14.7511ZM71.1781 12.1571H77.7939C77.6063 11.269 77.2074 10.6147 76.6209 10.194C76.0344 9.7734 75.3541 9.5397 74.5799 9.5397C73.6884 9.5397 72.9377 9.7734 72.3511 10.2174C71.7646 10.7082 71.3893 11.3391 71.1781 12.1571Z" fill="#222222"/>
<path d="M87.4137 1.9912C91.1205 3.90749 94.4049 7.92704 96.0002 11.6194C93.7246 9.04878 91.9181 7.43628 89.1498 5.82379C87.883 5.09934 85.6073 4.11782 84.0589 3.76728C80.3053 2.94935 78.3111 3.37 75.3786 2.73902C73.8772 2.41185 74.5106 1.4537 75.3082 0.986311C78.5692 -0.859877 83.8009 0.121641 87.4137 1.9912Z" fill="#222222"/>
</svg>
