<svg width="45" height="45" viewBox="0 0 45 45" fill="none" xmlns="http://www.w3.org/2000/svg">
    <rect width="45" height="45" rx="10" fill="#EFF5F5"/>
    <path d="M22.4992 23.7913C23.7494 23.7913 24.9485 23.346 25.8327 22.5534C26.7168 21.7608 27.2136 20.6857 27.2137 19.5647V16.7806C27.2001 15.6676 26.6973 14.6044 25.8147 13.8217C24.9321 13.039 23.7408 12.6 22.4994 12.6C21.2581 12.6 20.0668 13.039 19.1841 13.8217C18.3015 14.6044 17.7988 15.6676 17.7852 16.7806V19.5647C17.7852 20.6856 18.2818 21.7607 19.1659 22.5534C20.0499 23.346 21.2489 23.7913 22.4992 23.7913Z" fill="#234DD4"/>
    <path d="M31.5 19.7673C31.5 19.4646 31.3806 19.1743 31.1682 18.9603C30.9557 18.7463 30.6675 18.6261 30.367 18.6261C30.0665 18.6261 29.7783 18.7463 29.5659 18.9603C29.3534 19.1743 29.234 19.4646 29.234 19.7673C29.2181 21.5556 28.5016 23.2651 27.2404 24.524C25.9793 25.7829 24.2756 26.4892 22.5 26.4892C20.7244 26.4892 19.0207 25.7829 17.7596 24.524C16.4984 23.2651 15.7819 21.5556 15.766 19.7673C15.766 19.4646 15.6466 19.1743 15.4341 18.9603C15.2217 18.7463 14.9335 18.6261 14.633 18.6261C14.3325 18.6261 14.0443 18.7463 13.8318 18.9603C13.6194 19.1743 13.5 19.4646 13.5 19.7673C13.5 24.3779 16.9387 28.1882 21.3667 28.7519V31.2589C21.3667 31.5615 21.4861 31.8518 21.6986 32.0658C21.9111 32.2798 22.1992 32.4 22.4997 32.4C22.8002 32.4 23.0884 32.2798 23.3009 32.0658C23.5133 31.8518 23.6327 31.5615 23.6327 31.2589V28.7525C28.0613 28.1882 31.5 24.3774 31.5 19.7673Z" fill="#234DD4"/>
    <line y1="-1" x2="28.8" y2="-1" transform="matrix(0.646916 -0.762561 0.768145 0.640276 13.5 33.3)" stroke="#234DD4" stroke-width="2"/>
</svg>
