<svg width="31" height="30" viewBox="0 0 31 30" fill="none" xmlns="http://www.w3.org/2000/svg">
    <circle opacity="0.7" cx="15.6523" cy="15" r="14.5" fill="white" stroke="#EAEAEA"/>
    <g clip-path="url(#clip0)">
        <path d="M20.0359 14.6632L16.9061 11.5333C16.8168 11.4439 16.6977 11.3949 16.5707 11.3949C16.4436 11.3949 16.3246 11.444 16.2353 11.5333L15.9511 11.8175C15.8618 11.9067 15.8126 12.0259 15.8126 12.1529C15.8126 12.2799 15.8618 12.403 15.9511 12.4922L17.777 14.3222H11.976C11.7145 14.3222 11.5078 14.5269 11.5078 14.7885V15.1904C11.5078 15.452 11.7145 15.6774 11.976 15.6774H17.7977L15.9512 17.5175C15.8619 17.6069 15.8127 17.7228 15.8127 17.8498C15.8127 17.9767 15.8619 18.0943 15.9512 18.1836L16.2353 18.4669C16.3247 18.5563 16.4437 18.6049 16.5708 18.6049C16.6978 18.6049 16.8168 18.5556 16.9062 18.4663L20.036 15.3364C20.1256 15.2468 20.1748 15.1272 20.1745 15C20.1747 14.8724 20.1256 14.7527 20.0359 14.6632Z" fill="#717171"/>
    </g>
    <defs>
        <clipPath id="clip0">
            <rect width="8.66667" height="8.66667" fill="white" transform="translate(11.5078 10.6667)"/>
        </clipPath>
    </defs>
</svg>
