<svg width="45" height="45" viewBox="0 0 45 45" fill="none" xmlns="http://www.w3.org/2000/svg">
    <rect width="45" height="45" rx="10" fill="#EFF5F5"/>
    <path d="M31 15H27.83L26.59 13.65C26.4036 13.4454 26.1767 13.2819 25.9235 13.17C25.6704 13.0581 25.3968 13.0002 25.12 13H20.88C20.32 13 19.78 13.24 19.4 13.65L18.17 15H15C13.9 15 13 15.9 13 17V29C13 30.1 13.9 31 15 31H31C32.1 31 33 30.1 33 29V17C33 15.9 32.1 15 31 15ZM24.67 27.7C24.15 27.89 23.59 28 23 28C20.24 28 18 25.76 18 23H16L18.5 20.5L21 23H19C19 25.21 20.79 27 23 27C23.46 27 23.91 26.92 24.32 26.77C24.3821 26.7417 24.4494 26.7264 24.5176 26.7251C24.5859 26.7239 24.6536 26.7366 24.7167 26.7627C24.7798 26.7887 24.8369 26.8274 24.8844 26.8765C24.9319 26.9255 24.9688 26.9837 24.9929 27.0476C25.0169 27.1115 25.0276 27.1797 25.0242 27.2478C25.0208 27.316 25.0034 27.3828 24.9731 27.4439C24.9428 27.5051 24.9003 27.5594 24.8482 27.6035C24.796 27.6475 24.7354 27.6804 24.67 27.7ZM27.5 25.5L25 23H27C27 20.79 25.21 19 23 19C22.54 19 22.09 19.08 21.68 19.23C21.6179 19.2583 21.5506 19.2736 21.4824 19.2749C21.4141 19.2761 21.3464 19.2634 21.2833 19.2373C21.2202 19.2113 21.1631 19.1726 21.1156 19.1235C21.0681 19.0745 21.0312 19.0163 21.0071 18.9524C20.9831 18.8885 20.9724 18.8203 20.9758 18.7522C20.9792 18.684 20.9966 18.6172 21.0269 18.5561C21.0572 18.4949 21.0997 18.4406 21.1518 18.3965C21.204 18.3525 21.2646 18.3196 21.33 18.3C21.85 18.11 22.41 18 23 18C25.76 18 28 20.24 28 23H30L27.5 25.5Z" fill="#234DD4"/>
</svg>
